<svg xmlns="http://www.w3.org/2000/svg" viewBox="0 0 36 36"><defs><style>.a{fill:#d6012f;}</style></defs><title>icon_5</title><path class="a" d="M18,36A84.59,84.59,0,0,1,4.64,34.93a4.32,4.32,0,0,1-3.32-3.69q-0.2-1.86-.38-3.73A4.87,4.87,0,0,1,3.38,23a33.67,33.67,0,0,1,9-2.83l-0.05-.34a3.94,3.94,0,0,1-1.48-2.52c0-.29-0.06-0.58-0.1-0.88a2.17,2.17,0,0,1-1.3-1.78L9.12,11.16a2.15,2.15,0,0,1,.46-1.59A2.18,2.18,0,0,1,10,9.22L9.84,8.16c-0.11-1.19-.38-4,1.78-5.89A9.15,9.15,0,0,1,18,0a9.2,9.2,0,0,1,6.44,2.31C26.54,4.19,26.28,7,26.17,8.15l0,0.29-0.09.77a2.09,2.09,0,0,1,.36.35,2.16,2.16,0,0,1,.47,1.6l-0.36,3.51a2.15,2.15,0,0,1-1.31,1.78l-0.11.92a3.87,3.87,0,0,1-1.46,2.48l0,0.34a33.45,33.45,0,0,1,9,2.8,4.89,4.89,0,0,1,2.5,4.52L34.7,31.25a4.32,4.32,0,0,1-3.3,3.68A84.67,84.67,0,0,1,18,36h0ZM12.4,13.42l0.21,0.05a1.51,1.51,0,0,1,1,1.26c0.09,0.77.18,1.53,0.26,2.3a1.76,1.76,0,0,0,.69.71,1.5,1.5,0,0,1,.69,1.07l0.34,2.45A1.51,1.51,0,0,1,14.3,23a30.73,30.73,0,0,0-9.57,2.75A1.85,1.85,0,0,0,4,27.23c0.12,1.25.24,2.48,0.37,3.71a1.32,1.32,0,0,0,.83,1,81.68,81.68,0,0,0,25.72,0,1.31,1.31,0,0,0,.8-1L32,27.23a1.87,1.87,0,0,0-.83-1.52A30.6,30.6,0,0,0,21.7,23a1.52,1.52,0,0,1-1.32-1.72l0.35-2.47a1.51,1.51,0,0,1,.68-1.05A1.71,1.71,0,0,0,22.09,17l0.27-2.31a1.51,1.51,0,0,1,1-1.26l0.21-.05,0.17-1.68a1.52,1.52,0,0,1-.89-1.57l0-.15c0.07-.62.15-1.23,0.22-1.85l0-.31c0.11-1.18.15-2.5-.78-3.34A6.3,6.3,0,0,0,18,3a6.27,6.27,0,0,0-4.31,1.45c-1,.89-0.95,2.21-0.83,3.39l0.26,2.32a1.51,1.51,0,0,1-.66,1.43l-0.23.13,0.17,1.68h0Z"/></svg>