<?xml version="1.0" encoding="utf-8"?>
<!-- Generator: Adobe Illustrator 19.2.1, SVG Export Plug-In . SVG Version: 6.00 Build 0)  -->
<svg version="1.1" id="Capa_1" xmlns="http://www.w3.org/2000/svg" xmlns:xlink="http://www.w3.org/1999/xlink" x="0px" y="0px"
	 viewBox="0 0 48 48" style="enable-background:new 0 0 48 48;" xml:space="preserve">
<style type="text/css">
	.st0{fill:#FFFFFF;}
	.st1{fill:#EAEAEA;enable-background:new    ;}
	.st2{fill:#D6012F;}
	.st3{fill:none;}
</style>
<path class="st0" d="M22.2,37.2c0.5,0.5,1.1,0.8,1.8,0.8c0.7,0,1.3-0.3,1.8-0.8l3.6-3.6c0.2-0.2,0.3-0.4,0.3-0.6
	c0.1-0.7-0.3-1.3-1-1.4c-0.5-0.1-1-0.4-1.4-0.7c-1-1.1-1-2.8,0-3.8c1.1-1,2.7-1,3.8,0c0.4,0.4,0.6,0.8,0.7,1.3
	c0,0.2,0.2,0.4,0.3,0.6c0.5,0.5,1.2,0.5,1.7,0l3.2-3.2l0,0c1-1,1-2.6,0-3.6l-2.3-2.3c0.6-0.2,1.1-0.6,1.5-1c1.3-1.3,1.7-3.1,1.3-4.8
	l0,0L45,35.3c2-3.5,3-7.3,3-11.3C48,10.7,37.3,0,24,0S0,10.7,0,24c0,11.3,7.9,20.8,18.4,23.3l-7.7-21.6L22.2,37.2z"/>
<path class="st0" d="M45.2,35.2L37.7,14l0,0c0.4,1.7,0,3.5-1.3,4.8c-0.4,0.4-0.9,0.8-1.5,1l2.3,2.3c1,1,1,2.6,0,3.6l0,0L34,29
	c-0.5,0.5-1.2,0.5-1.7,0c-0.2-0.2-0.3-0.4-0.3-0.6c-0.1-0.5-0.4-1-0.7-1.3c-1.1-1-2.7-1-3.8,0c-1.1,1-1.1,2.8,0,3.8
	c0.4,0.4,0.8,0.6,1.4,0.7c0.7,0.1,1.1,0.7,1,1.4c0,0.2-0.2,0.5-0.3,0.6L26,37.2c-0.7,0.5-1.3,0.8-2,0.8s-1.3-0.3-1.8-0.8L10.7,25.8
	l7.7,21.6c1.8,0.4,3.6,0.7,5.6,0.7C33.2,48,41.2,42.8,45.2,35.2z"/>
<path class="st1" d="M45.2,35.2L37.7,14l0,0c0.4,1.7,0,3.5-1.3,4.8c-0.4,0.4-0.9,0.8-1.5,1l2.3,2.3c1,1,1,2.6,0,3.6l0,0L34,29
	c-0.5,0.5-1.2,0.5-1.7,0c-0.2-0.2-0.3-0.4-0.3-0.6c-0.1-0.5-0.4-1-0.7-1.3c-1.1-1-2.7-1-3.8,0c-1.1,1-1.1,2.8,0,3.8
	c0.4,0.4,0.8,0.6,1.4,0.7c0.7,0.1,1.1,0.7,1,1.4c0,0.2-0.2,0.5-0.3,0.6L26,37.2c-0.7,0.5-1.3,0.8-2,0.8s-1.3-0.3-1.8-0.8L10.7,25.8
	l7.7,21.6c1.8,0.4,3.6,0.7,5.6,0.7C33.2,48,41.2,42.8,45.2,35.2z"/>
<title>icon_1</title>
<path class="st2" d="M24,38L24,38c-0.7,0-1.3-0.3-1.8-0.8L10.8,25.8c-1-1-1-2.6,0-3.6l0,0l3.6-3.6c0.5-0.5,1.2-0.5,1.7,0
	c0.2,0.2,0.3,0.4,0.3,0.6c0.1,0.5,0.4,1,0.7,1.4c1.1,1,2.8,1,3.8,0c1.1-1,1.1-2.8,0-3.8c-0.4-0.4-0.8-0.6-1.4-0.7s-1.1-0.8-0.9-1.4
	c0-0.2,0.2-0.4,0.3-0.6l3.2-3.2c1-1,2.6-1,3.6,0l2.3,2.3c0.2-0.5,0.6-1,1-1.5c2-2,5.2-2,7.2,0s2,5.2,0,7.2c-0.4,0.4-0.9,0.8-1.5,1
	l2.3,2.3c1,1,1,2.6,0,3.6l0,0L34,29c-0.5,0.5-1.2,0.5-1.7,0c-0.2-0.2-0.3-0.4-0.3-0.6c-0.1-0.5-0.4-1-0.7-1.3c-1.1-1-2.7-1-3.8,0
	c-1.1,1-1.1,2.8,0,3.8c0.4,0.4,0.8,0.6,1.4,0.7c0.7,0.1,1.1,0.7,1,1.4c0,0.2-0.2,0.5-0.3,0.6L26,37.2C25.4,37.7,24.7,38,24,38L24,38
	z M14.8,21.5l-2.3,2.3c-0.1,0.1-0.1,0.2,0,0.2l0,0l11.4,11.4c0.1,0.1,0.1,0.1,0.2,0l0,0l2.3-2.3c-2.3-1.6-2.9-4.8-1.3-7.1
	c0.2-0.3,0.4-0.5,0.6-0.7c2-2,5.2-2,7.2,0l0,0c0.2,0.2,0.4,0.5,0.6,0.7l2-2c0.1-0.1,0.1-0.2,0-0.2l-3.9-3.9
	c-0.4-0.4-0.4-0.9-0.2-1.4c0.2-0.5,0.7-0.7,1.2-0.7c1.5,0.1,2.8-1,2.9-2.4c0.1-0.8-0.2-1.6-0.8-2.1c-1.1-1-2.7-1-3.8,0
	c-0.6,0.6-0.8,1.3-0.8,2.1c0.1,0.7-0.4,1.2-1.1,1.3c-0.4,0-0.7-0.1-1-0.4l-3.9-3.9c0-0.1-0.1-0.1-0.2,0l0,0l-2,2
	c0.3,0.2,0.5,0.4,0.7,0.6c2,2,2,5.2,0,7.2s-5.2,2-7.2,0l0,0C15.2,22,15,21.7,14.8,21.5L14.8,21.5L14.8,21.5z"/>
<path class="st3" d="M70.4,22.2c-0.2-0.2-0.4-0.5-0.6-0.7l0,0l-2.3,2.3c-0.1,0.1-0.1,0.2,0,0.2l0,0l0.7,0.7l3.6-1.6
	C71.3,22.9,70.8,22.6,70.4,22.2z"/>
</svg>
