<?xml version="1.0" encoding="utf-8"?>
<!-- Generator: Adobe Illustrator 19.2.1, SVG Export Plug-In . SVG Version: 6.00 Build 0)  -->
<svg version="1.1" id="Capa_1" xmlns="http://www.w3.org/2000/svg" xmlns:xlink="http://www.w3.org/1999/xlink" x="0px" y="0px"
	 viewBox="0 0 48 48" style="enable-background:new 0 0 48 48;" xml:space="preserve">
<style type="text/css">
	.st0{fill:#FFFFFF;}
	.st1{fill:#D6012F;}
	.st2{fill:none;}
	.st3{opacity:5.000000e-02;enable-background:new    ;}
	.st4{fill:#EAEAEA;enable-background:new    ;}
</style>
<circle class="st0" cx="23.9" cy="24" r="24"/>
<path class="st0" d="M42.6,11l5.2,9.9C46.2,9.1,36.2,0,24,0C10.7,0,0,10.7,0,24c0,10.8,7.1,19.9,16.9,22.9l-5.4-7.8L42.6,11z"/>
<title>icon_2</title>
<circle class="st1" cx="35.2" cy="35.1" r="1.2"/>
<path class="st2" d="M24.7,31L24.7,31L24.7,31z"/>
<path class="st2" d="M36.3,15L36.3,15L36.3,15z"/>
<path class="st2" d="M37.5,13.5c0.2,0.2,0.6,0.1,0.7-0.1l1.4-1.4l-0.8-0.9l-1.4,1.4c-0.2,0.2-0.2,0.6,0,0.9
	C37.4,13.4,37.4,13.5,37.5,13.5z"/>
<path class="st2" d="M33.7,19l3.1-2.8c-0.1,0-0.2,0-0.2-0.1L33.7,19z"/>
<path class="st2" d="M22.7,18.1c0.1-0.5,0.2-1,0.2-1.5C23,13,20.1,10,16.5,9.9l2.5,2.5c0.4,0.4,0.5,0.9,0.4,1.4l-1,3.7
	c-0.1,0.5-0.5,0.9-1,1l-3.7,1c-0.5,0.1-1,0-1.4-0.4l-2.5-2.5c0,0.5,0.1,1,0.2,1.5c0.9,3.5,4.4,5.6,7.9,4.7c0.1,0,0.2,0,0.4,0
	c0.4,0,0.7,0.2,1,0.4l4.7,4.7l3.9-3.5l-4.9-5C22.7,19.1,22.6,18.5,22.7,18.1z"/>
<path class="st1" d="M42.6,11l0.3,0.7C42.9,11.4,42.8,11.2,42.6,11z"/>
<polygon class="st3" points="47.8,20.9 42.6,11 42.9,11.7 "/>
<path class="st2" d="M36.6,16.2L33.7,19l3.1-2.8C36.7,16.2,36.7,16.2,36.6,16.2z"/>
<path class="st2" d="M22.7,18.1c0.1-0.5,0.2-1,0.2-1.5C23,13,20.1,10,16.5,9.9l2.5,2.5c0.4,0.4,0.5,0.9,0.4,1.4l-1,3.7
	c-0.1,0.5-0.5,0.9-1,1l-3.7,1c-0.5,0.1-1,0-1.4-0.4l-2.5-2.5c0,0.5,0.1,1,0.2,1.5c0.9,3.5,4.4,5.6,7.9,4.7c0.1,0,0.2,0,0.4,0
	c0.4,0,0.7,0.2,1,0.4l4.7,4.7l0,0l3.9-3.5l-4.9-5C22.7,19.1,22.6,18.5,22.7,18.1z"/>
<path class="st2" d="M37.5,13.5c0.2,0.2,0.6,0.1,0.7-0.1l1.4-1.4l-0.8-0.9l-1.4,1.4c-0.2,0.2-0.2,0.6,0,0.9
	C37.4,13.4,37.4,13.5,37.5,13.5z"/>
<path class="st2" d="M20.2,28.2l-6,6c-1.1,1.1-1.3,2.5-0.7,3c0,0,0.1,0,0.1,0.1l0,0l8.2-7.4l0,0L20.2,28.2z"/>
<polygon class="st3" points="33.7,19 33.7,19 36.8,16.2 36.8,16.2 "/>
<path class="st3" d="M47.8,20.9l-4.9-9.2c0.1,0.5,0,1-0.3,1.3l-2.4,2.4c-0.6,0.6-1.5,1-2.4,1c-0.3,0-0.6-0.1-1-0.2L33.7,19l-3.5,3.5
	l9,9c2.1,2.1,2.1,5.6,0,7.8c-2.1,2.1-5.6,2.1-7.8,0l-6.9-6.9l-6,6c-1.1,1.1-2.6,1.8-4.2,1.8c-1.1,0-2.1-0.4-2.9-1.1l5.4,7.8
	c2.2,0.7,4.6,1.1,7.1,1.1c13.3,0,24-10.7,24-24C48,22.9,47.9,21.9,47.8,20.9z"/>
<path class="st4" d="M47.8,20.9l-4.9-9.2c0.1,0.5,0,1-0.3,1.3l-2.4,2.4c-0.6,0.6-1.5,1-2.4,1c-0.3,0-0.6-0.1-1-0.2L33.7,19l-3.5,3.5
	l9,9c2.1,2.1,2.1,5.6,0,7.8c-2.1,2.1-5.6,2.1-7.8,0l-6.9-6.9l-6,6c-1.1,1.1-2.6,1.8-4.2,1.8c-1.1,0-2.1-0.4-2.9-1.1l5.4,7.8
	c2.2,0.7,4.6,1.1,7.1,1.1c13.3,0,24-10.7,24-24C48,22.9,47.9,21.9,47.8,20.9z"/>
<path class="st1" d="M13.6,37.2L13.6,37.2c-0.6-0.6-0.5-2,0.6-3.1l6-6l1.6,1.6l0,0l2.2-2l0,0L19.3,23c-0.3-0.3-0.6-0.4-1-0.4
	c-0.1,0-0.2,0-0.4,0c-3.5,0.9-7-1.2-7.9-4.7c-0.1-0.5-0.2-1-0.2-1.5l2.5,2.5c0.4,0.4,0.9,0.5,1.4,0.4l3.7-1c0.5-0.1,0.9-0.5,1-1
	l1-3.7c0.1-0.5,0-1-0.4-1.4l-2.5-2.5c3.6,0.1,6.4,3,6.4,6.6c0,0.5-0.1,1-0.2,1.5s0,1,0.4,1.4l4.9,4.9l5.8-5.3l0,0l2.8-2.8
	c0.1,0,0.1,0,0.2,0.1l0,0l5.8-5.2L39.7,8c-0.6-0.5-1.4-0.5-2,0l-2.4,2.4c-1,1-1.3,2.4-0.8,3.7l-6.4,6.4l-2.6-2.6
	c0.5-3-0.5-6-2.6-8.1c-2.6-2.6-6.5-3.4-9.9-2.2c-0.7,0.3-1.1,1.1-0.8,1.8c0.1,0.2,0.2,0.4,0.3,0.5l3.8,3.8l-0.6,2.1l-2.1,0.6
	l-3.8-3.8c-0.6-0.6-1.5-0.6-2,0c-0.1,0.1-0.3,0.3-0.3,0.5C5.8,18,8.2,23.4,13.1,25.2c1.5,0.6,3.2,0.7,4.8,0.5l0.4,0.4l-6,6
	c-2.2,2.2-2.5,5.3-0.7,7L13.6,37.2L13.6,37.2z M37.3,12.5l1.4-1.4l0.8,0.9l-1.4,1.4c-0.2,0.2-0.5,0.3-0.7,0.1
	c-0.1,0-0.1-0.1-0.1-0.1C37.1,13.1,37.1,12.7,37.3,12.5z"/>
<path class="st1" d="M18.6,38.4l6-6l6.9,6.9c2.1,2.1,5.6,2.1,7.8,0c2.1-2.1,2.1-5.6,0-7.8l-9-9l3.5-3.5L28,24.3l0,0l9.3,9.3
	c0.5,0.5,0.8,1.2,0.8,1.9l0,0c0,0.7-0.3,1.4-0.8,1.9c-1,1-2.7,1-3.7,0L24,27.8l-2.2,2l0.7,0.7l-6,6c-0.6,0.6-1.3,1-2.1,1
	c-0.3,0-0.5-0.1-0.8-0.2l-2.1,1.9c0.8,0.8,1.8,1.2,2.9,1.1C16,40.2,17.5,39.5,18.6,38.4z"/>
<path class="st1" d="M37.8,16.4c0.9,0,1.8-0.4,2.4-1l2.4-2.4c0.4-0.4,0.5-0.9,0.3-1.3L42.6,11l-5.8,5.2
	C37.1,16.3,37.4,16.4,37.8,16.4z"/>
</svg>
