<svg xmlns="http://www.w3.org/2000/svg" viewBox="0 0 36 36"><defs><style>.a{fill:#d6012f;}</style></defs><title>icon_6</title><path class="a" d="M34.49,0h-33A1.51,1.51,0,0,0,0,1.51v33A1.51,1.51,0,0,0,1.51,36h33A1.51,1.51,0,0,0,36,34.49v-33A1.51,1.51,0,0,0,34.49,0ZM33,3V9.58H3V3H33ZM3,33V11.1H33V33H3Z"/><circle class="a" cx="6.88" cy="6.35" r="1.91"/><circle class="a" cx="12.05" cy="6.35" r="1.91"/><circle class="a" cx="17.22" cy="6.35" r="1.91"/><path class="a" d="M27.09,25.25H17.43a1.51,1.51,0,0,0,0,3h9.65A1.51,1.51,0,0,0,27.09,25.25Z"/><path class="a" d="M15.48,20.2L10,14.7a1.51,1.51,0,1,0-2.14,2.14l4.42,4.43L7.84,25.7A1.51,1.51,0,1,0,10,27.84l5.49-5.5A1.51,1.51,0,0,0,15.48,20.2Z"/></svg>