<svg xmlns="http://www.w3.org/2000/svg" viewBox="0 0 36 36"><defs><style>.a{fill:#d6012f;}</style></defs><title>icon_4</title><path class="a" d="M35.71,9a1.41,1.41,0,0,0-1.13-.56H9.35L8.23,4.38a1.42,1.42,0,0,0-1.31-1L1.48,3.1A1.37,1.37,0,0,0,0,4.46,1.42,1.42,0,0,0,1.36,5.94L5.77,6.13l1.1,4s0,0.07,0,.11L10.5,23.42a1.41,1.41,0,0,0,.2.42,1.38,1.38,0,0,0,.14.15,1.42,1.42,0,0,0,.17.18,1.42,1.42,0,0,0,.23.12,1,1,0,0,0,.62.16H30.95a1.42,1.42,0,0,0,1.37-1l3.63-13.18A1.41,1.41,0,0,0,35.71,9ZM29.87,21.62H13L10.12,11.28H32.72Z"/><path class="a" d="M15.26,25.1a3.9,3.9,0,1,0,3.9,3.9A3.91,3.91,0,0,0,15.26,25.1Zm0,5A1.06,1.06,0,1,1,16.32,29,1.07,1.07,0,0,1,15.26,30.07Z"/><path class="a" d="M27.09,25.1A3.9,3.9,0,1,0,31,29,3.91,3.91,0,0,0,27.09,25.1Zm0,5A1.06,1.06,0,1,1,28.15,29,1.07,1.07,0,0,1,27.09,30.07Z"/></svg>