<?xml version="1.0" encoding="utf-8"?>
<!-- Generator: Adobe Illustrator 19.2.1, SVG Export Plug-In . SVG Version: 6.00 Build 0)  -->
<svg version="1.1" id="Capa_1" xmlns="http://www.w3.org/2000/svg" xmlns:xlink="http://www.w3.org/1999/xlink" x="0px" y="0px"
	 viewBox="0 0 48 48" style="enable-background:new 0 0 48 48;" xml:space="preserve">
<style type="text/css">
	.st0{fill:#FFFFFF;}
	.st1{fill:#EAEAEA;enable-background:new    ;}
	.st2{fill:#D6012F;}
	.st3{fill:none;}
	.st4{fill:#AA1B41;}
</style>
<circle class="st0" cx="23.9" cy="24" r="24"/>
<path class="st0" d="M11.3,29.7c0.7,0.2,1.4,0.3,2,0.3h20.4c0.8,0,1.5-0.1,2.2-0.4c3.6-1.1,6-4.4,6-8.2l3.9,12.3
	c1.3-3,2.1-6.3,2.1-9.8C48,10.7,37.3,0,24,0S0,10.7,0,24c0,9.8,5.9,18.3,14.4,22L6.6,25.4C7.4,27.4,9.1,29,11.3,29.7z"/>
<path class="st1" d="M45.9,33.8L42,21.4c0,3.7-2.4,7.1-6,8.2c-0.7,0.3-1.5,0.4-2.2,0.4l0,0l0,0H13.4c-0.7,0-1.4-0.1-2-0.3
	c-2.2-0.7-3.9-2.3-4.8-4.2L14.4,46c2.9,1.3,6.2,2,9.6,2C33.8,48,42.2,42.2,45.9,33.8z"/>
<title>icon_3</title>
<path class="st2" d="M22.8,43.1c-0.8,0-1.4-0.7-1.4-1.5c0-0.2,0.1-0.5,0.2-0.7l2-3.6H22c-0.8,0-1.4-0.7-1.4-1.5
	c0-0.3,0.1-0.5,0.2-0.7l1.6-2.6c0.4-0.7,1.3-0.9,2-0.5l0,0c0.7,0.4,0.9,1.3,0.5,2l0,0l-0.2,0.4H26c0.8,0,1.4,0.6,1.4,1.4
	c0,0.3-0.1,0.5-0.2,0.7L24,42.3C23.7,42.8,23.3,43.1,22.8,43.1L22.8,43.1L22.8,43.1z"/>
<path class="st3" d="M38.7,19.8c-1-2.9-4.1-4.6-7.1-3.6c0,0,0,0-0.1,0L30,16.8l-0.3-1.6c-0.9-3.7-4.6-5.9-8.2-5
	c-3,0.7-5.2,3.4-5.2,6.5v1.7L14.5,18c-0.3-0.1-0.6-0.1-0.9-0.1l0,0C11.1,17.9,9,20,9,22.5c0,0.9,0.3,1.7,0.7,2.4L39,21.8
	C39,21.1,38.9,20.5,38.7,19.8z"/>
<path class="st2" d="M6.6,25.4v-0.1C6.5,25.3,6.6,25.4,6.6,25.4z"/>
<path class="st4" d="M6.5,25.3L6.5,25.3L6.5,25.3z"/>
<path class="st2" d="M33.4,13c-0.5,0-1,0-1.4,0.1c-1.5-3.7-5-6.1-9-6c-4.7,0-8.7,3.4-9.5,7.9c-3.3,0-6.2,2.2-7.2,5.3
	c-0.5,1.7-0.4,3.4,0.2,4.9l0,0v0.1c0.8,2,2.5,3.6,4.8,4.2c0.7,0.2,1.4,0.3,2,0.3h20.4c0.8,0,1.5-0.1,2.2-0.4c3.6-1.1,6-4.4,6-8.2
	C41.9,16.8,38.1,13,33.4,13z M35.1,26.9c-0.4,0.2-0.8,0.2-1.3,0.2H13.4c-0.4,0-0.8-0.1-1.2-0.2c-1.1-0.3-2-1-2.5-2
	C9.2,24.2,9,23.4,9,22.5c0-2.5,2-4.6,4.6-4.6l0,0c0.3,0,0.6,0,0.9,0.1l1.7,0.4v-1.7c0.1-3.1,2.2-5.7,5.2-6.5c3.7-0.9,7.3,1.4,8.2,5
	l0.3,1.6l1.6-0.5c0,0,0,0,0.1,0c2.9-1,6.1,0.7,7.1,3.6c0.2,0.7,0.3,1.3,0.3,2C38.9,24,37.4,26.1,35.1,26.9z"/>
</svg>
