<svg xmlns="http://www.w3.org/2000/svg" viewBox="0 0 1176.95 643.89"><defs><style>.a{fill:#cfb7a2;}.b{fill:#ddc3aa;}.c{fill:#b19c88;}.d{fill:#b3b3b3;}.e{fill:#ccc;}.f{fill:#e6e6e6;}.g{fill:#333;}.h{fill:#e2e2e2;}.i{fill:#fdda7b;}.j{fill:#fcca60;}.k{fill:#fff;}.ak,.l{fill:#f8002c;}.m{fill:#36454f;}.n{fill:#9f9f9f;}.o{fill:#26353d;}.p{fill:#00b6f1;}.q{fill:#f3eee7;}.r{fill:#f3eedb;}.s{fill:#924533;}.t{fill:#dddac8;}.u{fill:#6f3224;}.v{fill:#ff3f30;}.w{fill:#ff5149;}.x{fill:#009179;}.y{fill:#ffbe97;}.z{fill:#ffd0b5;}.aa{fill:#f53420;}.ab{fill:#008268;}.ac{fill:#adeee9;}.ad{fill:#d8fbf7;}.ae{fill:#ffb594;}.af{fill:#bf743f;}.ag{fill:#9b5d2c;}.ah{fill:#b1b0b6;}.ai{fill:#989199;}.aj{fill:#050505;}.ak{stroke:#fff;stroke-miterlimit:10;}.al{fill:#f2eee8;}</style></defs><title>video</title><rect class="a" y="525.87" width="1158.41" height="35.02"/><rect class="b" x="657.78" y="560.92" width="414.1" height="75.79"/><rect class="c" x="816.42" y="606.43" width="96.83" height="17.72"/><rect class="c" x="65.93" y="560.9" width="35.02" height="75.79"/><rect class="c" x="1057.46" y="560.9" width="35.02" height="75.79"/><rect class="c" x="622.76" y="560.9" width="35.02" height="75.79"/><path class="d" d="M579.18,444l16.23,66.35H443.95q8.11-33.17,16.23-66.35h119Z"/><path class="e" d="M483.13,510.34H443.95l13.56-55.44Z"/><path class="f" d="M434.58,509.17h170.2c4.32,0,7.82,4.11,7.82,9.19v3.45H426.75v-3.45C426.75,513.28,430.26,509.17,434.58,509.17Z"/><path class="f" d="M775.6,418.16v36.56a12.73,12.73,0,0,1-12.74,12.75H276.5a12.75,12.75,0,0,1-12.74-12.75V418.16H775.6Z"/><path class="g" d="M263.76,418.16V108.54A12.75,12.75,0,0,1,276.5,95.8H762.86a12.74,12.74,0,0,1,12.74,12.75V418.16H263.76Z"/><rect class="h" x="284.72" y="115.71" width="469.91" height="281.32"/><rect class="i" x="349.04" y="432.21" width="57.97" height="69.31" transform="translate(-132.94 782.73) rotate(-82.73)"/><rect class="j" x="373.17" y="410.96" width="15.12" height="69.31" transform="translate(-109.5 766.85) rotate(-82.73)"/><rect class="k" x="338.66" y="151.71" width="366" height="245.32"/><rect class="l" x="284.72" y="115.71" width="469.91" height="41.34"/><rect class="m" x="284.72" y="168.71" width="469.91" height="79"/><rect class="n" x="284.72" y="259.72" width="469.91" height="123.99"/><path class="h" d="M384.32,136.71a3.33,3.33,0,0,0,3.33,3.33h54a3.33,3.33,0,0,0,3.33-3.33h0a3.33,3.33,0,0,0-3.33-3.33h-54a3.33,3.33,0,0,0-3.33,3.33h0Z"/><path class="h" d="M315.32,136.71a3.33,3.33,0,0,0,3.33,3.33h54a3.33,3.33,0,0,0,3.33-3.33h0a3.33,3.33,0,0,0-3.33-3.33h-54a3.33,3.33,0,0,0-3.33,3.33h0Z"/><circle class="h" cx="306.65" cy="136.71" r="3.33"/><rect class="o" x="583.49" y="270.71" width="83" height="102.5"/><rect class="l" x="578.99" y="279.04" width="80.02" height="14"/><rect class="l" x="601.99" y="297.05" width="57.02" height="14"/><rect class="o" x="482.48" y="270.71" width="83" height="102.5"/><rect class="l" x="477.98" y="279.04" width="80.02" height="14"/><rect class="l" x="500.98" y="297.05" width="57.02" height="14"/><rect class="o" x="381.47" y="270.71" width="83" height="102.5"/><rect class="l" x="376.97" y="279.04" width="80.02" height="14"/><rect class="l" x="399.97" y="297.05" width="57.02" height="14"/><rect class="p" x="375.98" y="228.95" width="37.34" height="9.01"/><circle class="l" cx="613.25" cy="208.21" r="29.76"/><path class="q" d="M702.95,210.9a1,1,0,0,0-.29-0.71l-4.84-4.84a1,1,0,0,0-1.41,1.41l4.13,4.13L696.4,215a1,1,0,0,0,1.41,1.41l4.84-4.84a1,1,0,0,0,.29-0.71h0Z"/><path class="q" d="M339.07,210.9a1,1,0,0,1,.29-0.71l4.84-4.84a1,1,0,0,1,1.41,1.41l-4.13,4.13,4.13,4.13a1,1,0,0,1-1.41,1.41l-4.84-4.84a1,1,0,0,1-.29-0.71h0Z"/><rect class="h" x="403.49" y="196.71" width="161.99" height="3"/><rect class="h" x="403.49" y="207.71" width="161.99" height="3"/><rect class="h" x="403.49" y="218.71" width="161.99" height="3"/><rect class="h" x="506.99" y="186.46" width="58.49" height="4.31"/><circle class="l" cx="690.82" cy="254.04" r="2.5"/><circle class="l" cx="682.82" cy="254.04" r="2.5"/><ellipse class="h" cx="723.96" cy="129.56" rx="1.27" ry="1.28"/><ellipse class="h" cx="625.96" cy="139.56" rx="1.27" ry="1.28"/><path class="h" d="M685.91,133.11h0a4.52,4.52,0,0,1,1.39-3.43l0.06-.06h0a5.07,5.07,0,0,1,3.33-1.12H691a5.09,5.09,0,0,1,3.33,1.12l0.08,0.07a4.52,4.52,0,0,1,1.39,3.41h0v7.32a0.35,0.35,0,0,1-.12.26,0.39,0.39,0,0,1-.28.11h-1.3a0.4,0.4,0,0,1-.28-0.11,0.35,0.35,0,0,1-.11-0.26v-7.07a3.09,3.09,0,0,0-.75-2.26,3,3,0,0,0-2.14-.76,3,3,0,0,0-2.13.76,3.1,3.1,0,0,0-.75,2.26v7.07a0.36,0.36,0,0,1-.11.26,0.4,0.4,0,0,1-.28.11h-1.3a0.4,0.4,0,0,1-.27-0.11,0.35,0.35,0,0,1-.12-0.26v-7.3Z"/><path class="h" d="M640.5,133.11h0a4.52,4.52,0,0,1,1.39-3.43l0.07-.06h0a5.09,5.09,0,0,1,3.34-1.12h0.34A5.08,5.08,0,0,1,649,129.6h0l0.07,0.07a4.51,4.51,0,0,1,1.39,3.41h0v7.32a0.35,0.35,0,0,1-.11.26,0.4,0.4,0,0,1-.28.11h-1.3a0.4,0.4,0,0,1-.28-0.11,0.35,0.35,0,0,1-.11-0.26v-7.07a3.08,3.08,0,0,0-.75-2.26,3.4,3.4,0,0,0-4.27,0,3.13,3.13,0,0,0-.75,2.26v7.07a0.36,0.36,0,0,1-.11.26,0.41,0.41,0,0,1-.28.11h-1.31a0.41,0.41,0,0,1-.28-0.11,0.35,0.35,0,0,1-.11-0.26v-7.3Z"/><path class="h" d="M664.85,134.63a5.9,5.9,0,0,1,.57-2.91,2.59,2.59,0,0,1,2.52-1.33H668a2.58,2.58,0,0,1,2.52,1.33,5.88,5.88,0,0,1,.57,2.91v0.07a6.81,6.81,0,0,1-.57,3.14,2.59,2.59,0,0,1-2.52,1.33h-0.07a2.6,2.6,0,0,1-2.5-1.33,6.85,6.85,0,0,1-.57-3.12v0h0v-0.06Zm-2.07,0c0,1.87.32,3.87,1.7,5.18a4.91,4.91,0,0,0,3.3,1.11h0.08a4.22,4.22,0,0,0,3.21-1.29v0.76a0.36,0.36,0,0,0,.11.26,0.41,0.41,0,0,0,.28.11h1.28a0.41,0.41,0,0,0,.28-0.11,0.36,0.36,0,0,0,.11-0.26V125.25A0.36,0.36,0,0,0,673,125a0.39,0.39,0,0,0-.28-0.11h-1.28a0.39,0.39,0,0,0-.28.11,0.36,0.36,0,0,0-.11.26v3.68h0v0.73a4.71,4.71,0,0,0-3.21-1.06h-0.08a4.93,4.93,0,0,0-3.3,1.11l0,0A6.47,6.47,0,0,0,662.78,134.67Z"/><path class="h" d="M699.46,135.34h3.21a3.25,3.25,0,0,1,2,.47,1.51,1.51,0,0,1,.56,1.3v0a1.41,1.41,0,0,1-.55,1.26,3.55,3.55,0,0,1-2,.45h0a3.56,3.56,0,0,1-2.6-.74,2.33,2.33,0,0,1-.51-1.77v-1Zm-2.15-2.75v3.69a4.77,4.77,0,0,0,1,3.33,4.47,4.47,0,0,0,3.44,1.18h0.89a4.9,4.9,0,0,0,3.72-1.15,3.51,3.51,0,0,0,1-2.47v0a3.29,3.29,0,0,0-1.26-2.69,5.28,5.28,0,0,0-3.29-.94h-3.34v-0.8a2.08,2.08,0,0,1,.61-1.68,3.36,3.36,0,0,1,2.23-.58h0a4.43,4.43,0,0,1,1.76.28,2.31,2.31,0,0,1,.8.58h0l0.39,0.46a0.34,0.34,0,0,0,.26.12,0.4,0.4,0,0,0,.28-0.1l0.61-.53,0.23-.19,0.08-.08,0.06,0a0.39,0.39,0,0,0,.14-0.26,0.33,0.33,0,0,0-.08-0.27l-0.1-.12h0l-0.23-.27-0.06-.07h0a5.16,5.16,0,0,0-4.06-1.45h-0.08a5.74,5.74,0,0,0-3.74,1.05,3.74,3.74,0,0,0-1.28,3h0v0Z"/><path class="h" d="M659.22,138.42a3.52,3.52,0,0,1-2,.44h0a3.55,3.55,0,0,1-2.6-.74,2.34,2.34,0,0,1-.51-1.77v-1h3.21a3.25,3.25,0,0,1,2,.47,1.52,1.52,0,0,1,.56,1.3v0A1.41,1.41,0,0,1,659.22,138.42Zm-7.33-5.81v3.69a4.74,4.74,0,0,0,1,3.33,4.45,4.45,0,0,0,3.44,1.17h0.89a4.9,4.9,0,0,0,3.71-1.14,3.5,3.5,0,0,0,1-2.47v0a3.3,3.3,0,0,0-1.26-2.69,5.26,5.26,0,0,0-3.29-.94H654v-0.77a0.18,0.18,0,0,0,0,0,2.08,2.08,0,0,1,.6-1.68,3.38,3.38,0,0,1,2.23-.58h0a4.38,4.38,0,0,1,1.76.28,2.34,2.34,0,0,1,.8.58l0.39,0.46a0.35,0.35,0,0,0,.25.12,0.39,0.39,0,0,0,.28-0.1l0.61-.53,0.23-.19,0.08-.07,0.06-.05a0.42,0.42,0,0,0,.14-0.27,0.33,0.33,0,0,0-.08-0.27l-0.1-.12h0l-0.23-.27L661,130h0a5.17,5.17,0,0,0-4.06-1.45H656.9a5.77,5.77,0,0,0-3.73,1.05,3.74,3.74,0,0,0-1.28,3h0v0Z"/><path class="h" d="M717.38,128.53h2.2v-3.31a0.37,0.37,0,0,1,.38-0.35h1.33a0.39,0.39,0,0,1,.27.1,0.34,0.34,0,0,1,.11.25v12.45a3.14,3.14,0,0,1-.79,2.19,3.09,3.09,0,0,1-2.3.91h-1.2a0.37,0.37,0,0,1-.26-0.11,0.43,0.43,0,0,1-.1-0.28v-1.29a0.42,0.42,0,0,1,.1-0.28,0.36,0.36,0,0,1,.26-0.12h1a1.69,1.69,0,0,0,.52-0.08,0.8,0.8,0,0,0,.2-0.1,1,1,0,0,0,.15-0.12,1.44,1.44,0,0,0,.31-1v-6.74h-2.2a0.37,0.37,0,0,1-.26-0.11,0.42,0.42,0,0,1-.1-0.28v-1.29a0.42,0.42,0,0,1,.1-0.28A0.36,0.36,0,0,1,717.38,128.53Z"/><path class="h" d="M707.89,130.06l0.12-.14,0,0,0.07-.08h0l0.1-.1,0.09-.09h0a3.57,3.57,0,0,1,2.67-1.12h0.07a2.75,2.75,0,0,1,2,.92l0.35,0.41V128.9a0.35,0.35,0,0,1,.11-0.26,0.4,0.4,0,0,1,.27-0.11h1.28a0.41,0.41,0,0,1,.28.11,0.35,0.35,0,0,1,.12.26v11.52a0.36,0.36,0,0,1-.12.26,0.4,0.4,0,0,1-.28.11h-1.28a0.4,0.4,0,0,1-.27-0.11,0.35,0.35,0,0,1-.11-0.26v-0.2h0V132.8a2.92,2.92,0,0,0-.57-1.62,1.94,1.94,0,0,0-1.57-.73,2.11,2.11,0,0,0-.82.13,2.31,2.31,0,0,0-.68.52l-0.06.06-0.28.31a0.36,0.36,0,0,1-.26.12,0.39,0.39,0,0,1-.28-0.11l-1-.87a0.4,0.4,0,0,1-.13-0.27A0.35,0.35,0,0,1,707.89,130.06Z"/><path class="h" d="M675.57,134.49h0a5.48,5.48,0,0,1,2.72-.79l1.91-.16a3,3,0,0,0,1.58-.46,1.13,1.13,0,0,0,.4-0.95h0v0a1.41,1.41,0,0,0-.59-1.21,3.37,3.37,0,0,0-2-.47h0a5.25,5.25,0,0,0-2.92.79h0l-0.48.34a0.35,0.35,0,0,1-.27.05,0.4,0.4,0,0,1-.24-0.17l-0.71-1a0.39,0.39,0,0,1,0-.44,0.45,0.45,0,0,1,.11-0.13l0.08-.05a7.74,7.74,0,0,1,4.45-1.27,5.64,5.64,0,0,1,3.4,1,3.22,3.22,0,0,1,1.34,2.63v0h0v0a2.94,2.94,0,0,1-1,2.35,5.24,5.24,0,0,1-3,1l-2,.16a2.62,2.62,0,0,0-1.44.45,1.15,1.15,0,0,0-.38,1v0h0a1.44,1.44,0,0,0,.7,1.3,4.51,4.51,0,0,0,2.36.49h0a4.87,4.87,0,0,0,3.26-1l0.42-.35a0.36,0.36,0,0,1,.27-0.08,0.43,0.43,0,0,1,.26.14l0.82,1a0.41,0.41,0,0,1,.09.29,0.35,0.35,0,0,1-.12.26l-0.39.33h0l0,0-0.05,0h0a7.55,7.55,0,0,1-4.57,1.3h0a6.56,6.56,0,0,1-3.75-1,3.31,3.31,0,0,1-1.48-2.76V137A2.93,2.93,0,0,1,675.57,134.49Z"/><path class="h" d="M628.32,140.27l1.61-2.27,3.22-4.7-2.5-2.65-1.46-1.54-0.09-.1a0.28,0.28,0,0,1,0-.41,0.4,0.4,0,0,1,.28-0.11H631a0.54,0.54,0,0,1,.3.14h0l5.61,6V125.2a0.35,0.35,0,0,1,.12-0.26,0.39,0.39,0,0,1,.27-0.11h1.28a0.4,0.4,0,0,1,.28.11,0.36,0.36,0,0,1,.12.26v15.21a0.35,0.35,0,0,1-.12.26,0.41,0.41,0,0,1-.28.11h-1.28a0.41,0.41,0,0,1-.27-0.11,0.34,0.34,0,0,1-.12-0.26v-3.07l-2.43-2.64-1.64,2.45h0l-2.3,3.44a0.37,0.37,0,0,1-.33.2h-1.67a0.42,0.42,0,0,1-.28-0.11A0.31,0.31,0,0,1,628.32,140.27Z"/><path class="h" d="M642.7,125h-0.23l-0.34,1-0.34-1h-0.22v1.17h0.15v-0.69s0-.06,0-0.12,0-.11,0-0.18l0.34,1h0.16l0.34-1v0.17c0,0.06,0,.1,0,0.13v0.69h0.15V125Z"/><path class="h" d="M640.74,125.56v-0.4h-0.38l-0.13,0a0.17,0.17,0,0,0-.09.17,0.19,0.19,0,0,0,.06.16,0.31,0.31,0,0,0,.17,0h0.36Zm0.16,0.63h-0.16v-0.5h-0.35l-0.14,0a0.17,0.17,0,0,0-.09.16v0.2a0.62,0.62,0,0,1,0,.09v0h-0.19v0a0.11,0.11,0,0,0,.05-0.07,0.66,0.66,0,0,0,0-.1v-0.16a0.2,0.2,0,0,1,.14-0.22,0.32,0.32,0,0,1-.12-0.11,0.3,0.3,0,0,1,0-.17,0.27,0.27,0,0,1,.16-0.27,0.47,0.47,0,0,1,.21,0h0.54v1.17Z"/><ellipse class="h" cx="641.23" cy="126.11" rx="0.08" ry="0.09" transform="translate(-2.04 10.83) rotate(-0.97)"/><path class="h" d="M639.63,126.19a0.09,0.09,0,0,0,0-.17,0.09,0.09,0,0,0,0,.17h0Z"/><path class="h" d="M688.42,143.17H691v7.25h-2.64a4.45,4.45,0,0,1-1.81-.33,3.36,3.36,0,0,1-1.19-.85,3.24,3.24,0,0,1-.65-1.17,4.3,4.3,0,0,1-.2-1.28,4.46,4.46,0,0,1,.19-1.24,3.15,3.15,0,0,1,.64-1.17,3.36,3.36,0,0,1,1.21-.87A4.7,4.7,0,0,1,688.42,143.17Zm0,0.47a3.74,3.74,0,0,0-1.35.23,3.18,3.18,0,0,0-1.05.65,2.83,2.83,0,0,0-.68,1,3.34,3.34,0,0,0-.24,1.28,3.28,3.28,0,0,0,.27,1.36,2.86,2.86,0,0,0,.72,1,3.18,3.18,0,0,0,1.05.61,3.77,3.77,0,0,0,1.24.21h2v-6.32h-2Z"/><path class="h" d="M679,150.42l0.16-.47h3.32V147h-3.06v-0.47h3.06v-2.9h-3.19l-0.2-.47h4v7.25h-4Z"/><path class="h" d="M666.78,150.42l0.16-.47h3.32V147H667.2v-0.47h3.06v-2.9h-3.19l-0.2-.47h4v7.25h-4Z"/><path class="h" d="M661.48,150.42l0.2-.47h3.38v-6.78h0.56v7.25h-4.15Z"/><path class="h" d="M657.1,143.07a3.91,3.91,0,0,1,1.5.29,3.77,3.77,0,0,1,1.21.79,3.72,3.72,0,0,1,.81,1.19,3.71,3.71,0,0,1,0,2.92,3.73,3.73,0,0,1-.81,1.18,3.78,3.78,0,0,1-1.21.79,3.92,3.92,0,0,1-1.5.29,4,4,0,0,1-1.51-.29,3.84,3.84,0,0,1-1.22-.79,3.73,3.73,0,0,1-.82-1.18,3.72,3.72,0,0,1,0-2.92,3.71,3.71,0,0,1,.82-1.19,3.83,3.83,0,0,1,1.22-.79A4,4,0,0,1,657.1,143.07Zm0,0.52a3.3,3.3,0,0,0-1.27.24,3.11,3.11,0,0,0-1,.68,3.24,3.24,0,0,0,0,4.56,3.11,3.11,0,0,0,1,.67,3.42,3.42,0,0,0,2.54,0,3.23,3.23,0,0,0,1-.67,3.11,3.11,0,0,0,.69-1,3.33,3.33,0,0,0,0-2.53,3.1,3.1,0,0,0-.69-1,3.24,3.24,0,0,0-1-.68A3.3,3.3,0,0,0,657.08,143.59Z"/><path class="h" d="M647.52,145.08a2,2,0,0,1,.13-0.74,1.62,1.62,0,0,1,.42-0.61,2,2,0,0,1,.73-0.41,3.4,3.4,0,0,1,1.09-.15h2v7.25h-0.56V147h-1.38a3.48,3.48,0,0,1-1.17-.17,2,2,0,0,1-.75-0.45,1.56,1.56,0,0,1-.39-0.63A2.25,2.25,0,0,1,647.52,145.08Zm0.61,0a1.59,1.59,0,0,0,.1.57,1.22,1.22,0,0,0,.32.47,1.5,1.5,0,0,0,.57.31,2.86,2.86,0,0,0,.86.11h1.35v-2.92h-1.41a2.53,2.53,0,0,0-.82.12,1.5,1.5,0,0,0-.55.32,1.27,1.27,0,0,0-.31.46A1.52,1.52,0,0,0,648.13,145.09Z"/><path class="h" d="M642.41,150.42l0.16-.47h3.32V147h-3.06v-0.47h3.06v-2.9h-3.19l-0.2-.47h4v7.25h-4Z"/><path class="h" d="M636,150.31l2.4-3.5A1.81,1.81,0,0,1,637,145a2,2,0,0,1,.13-0.7,1.58,1.58,0,0,1,.41-0.6,2,2,0,0,1,.74-0.41,3.58,3.58,0,0,1,1.13-.15h1.86v7.25h-0.56v-3.48H638.9l-2.48,3.65Zm1.63-5.25a1.28,1.28,0,0,0,.46,1,2.22,2.22,0,0,0,1.43.38h1.2v-2.84h-1.18a2.2,2.2,0,0,0-1.46.4A1.29,1.29,0,0,0,637.59,145.05Z"/><path class="h" d="M631.2,148.4a1.58,1.58,0,0,1,.27-1,2,2,0,0,1,.68-0.58,4.54,4.54,0,0,1,.89-0.36,7.57,7.57,0,0,0,.89-0.31,2.25,2.25,0,0,0,.69-0.45,1,1,0,0,0,.28-0.76,1.28,1.28,0,0,0-.12-0.55,1.38,1.38,0,0,0-.32-0.44,1.56,1.56,0,0,0-.48-0.29,1.67,1.67,0,0,0-.61-0.11,2.27,2.27,0,0,0-.64.09,4.27,4.27,0,0,0-.77.33l-0.22-.49a3.48,3.48,0,0,1,1.68-.46,2.21,2.21,0,0,1,.81.15,2.11,2.11,0,0,1,.66.41,2,2,0,0,1,.45.61,1.76,1.76,0,0,1,.16.76,1.63,1.63,0,0,1-.16.75,1.57,1.57,0,0,1-.42.52,2.45,2.45,0,0,1-.59.34l-0.68.26-0.68.24a2.8,2.8,0,0,0-.59.29,1.44,1.44,0,0,0-.42.41,1.12,1.12,0,0,0-.16.62,1.63,1.63,0,0,0,.15.74,1.33,1.33,0,0,0,.41.48,1.69,1.69,0,0,0,.58.26,2.61,2.61,0,0,0,.64.08,2.06,2.06,0,0,0,.74-0.14,4.3,4.3,0,0,0,.87-0.49l0.21,0.51a3.36,3.36,0,0,1-1.86.64,3.16,3.16,0,0,1-.91-0.13,2.12,2.12,0,0,1-.74-0.39,1.85,1.85,0,0,1-.51-0.66A2.22,2.22,0,0,1,631.2,148.4Z"/><path class="h" d="M672.13,150.42v-0.74L677,146.8l-4.87-2.89v-0.74l5.77,3.31,0.21,0.44Z"/><path class="r" d="M122.91,521.81H78.25c-0.72-.21-1.45-0.38-2.16-0.61l-10-111.41h69l-10,111.41C124.36,521.43,123.63,521.6,122.91,521.81Z"/><path class="s" d="M74.56,504.26L68.5,436.92h64.15l-6.06,67.34A186.38,186.38,0,0,1,74.56,504.26Z"/><path class="t" d="M131.28,397l2.13,15.47H67.75L69.88,397A222.41,222.41,0,0,1,131.28,397Z"/><path class="t" d="M62.93,409.26v-3.39a0.68,0.68,0,0,1,.68-0.68h73.94a0.68,0.68,0,0,1,.68.68v3.39H62.93Z"/><path class="r" d="M62.93,407.92v-2.27a0.6,0.6,0,0,1,.68-0.46h73.94a0.6,0.6,0,0,1,.68.46v2.27H62.93Z"/><path class="t" d="M66.06,409.79h69q-0.34,3.78-.68,7.57H66.74Q66.4,413.57,66.06,409.79Z"/><path class="r" d="M61.61,412.31a2.14,2.14,0,0,1,0-.34v-1a2,2,0,0,1,2-2h73.94a2,2,0,0,1,2,2v1a2,2,0,0,1,0,.34H61.61Z"/><path class="r" d="M69,403.61q0.45-3.3.91-6.6a222.41,222.41,0,0,1,61.4,0q0.45,3.3.91,6.6H69Z"/><path class="r" d="M66.74,417.36h33.8v19.56h-32q0.22,2.42.43,4.84Q67.61,427,66.28,412.31h0Z"/><path class="u" d="M100.55,436.92v69.16a184.55,184.55,0,0,1-26-1.82h0q-2.82-31.25-5.63-62.5-0.22-2.42-.43-4.84h32Z"/><path class="t" d="M69.88,397a220.07,220.07,0,0,1,30.67-2.13v10.32H68.75Q69.32,401.1,69.88,397Z"/><path class="t" d="M63.61,408.92a2,2,0,0,0-.68.14v-3.19a0.68,0.68,0,0,1,.68-0.68h36.94v3.73H63.61Z"/><path class="r" d="M63.61,406.48a5.32,5.32,0,0,0-.68,0v-1.11a0.69,0.69,0,0,1,.68-0.24h36.94v1.29H63.61Z"/><path class="t" d="M66.28,412.31h34.26v5H66.74Z"/><path class="r" d="M62.93,409.06a2,2,0,0,1,.68-0.14h36.94v3.39H61.61a2.14,2.14,0,0,1,0-.34v-1A2,2,0,0,1,62.93,409.06Z"/><path class="r" d="M293,515.93c0-12.56-19-22.75-42.37-22.75s-42.38,10.19-42.38,22.75c0,0,.25,5.88,5.88,5.88h72.5S293,521.18,293,515.93Z"/><path class="v" d="M945.87,369.09A712.24,712.24,0,0,0,1014,420.25c20.7,13.53,39,23.48,54.5,29.59,16.66,6.58,25.58,6.79,28,6.26,2.13-1.37,3.17-2.72,3.83-6.42,1.14-6.33,2.28-31.41-30.76-88.54a579.23,579.23,0,0,0-41.9-62.22,38.06,38.06,0,0,1,59.57-47.4,648.06,648.06,0,0,1,47.71,70.6c33.73,58.06,46.92,104.18,40.32,141-4.52,25.2-18.3,45.41-39.86,58.45-11.93,7.22-25.7,10.83-41.17,10.83-13.33,0-27.93-2.68-43.72-8-21.28-7.23-45.78-19.63-72.8-36.87-37.15-23.71-69-50-78.94-58.45Z"/><path class="w" d="M1058.21,445.39c-14.39-4.56-31-11.56-49.67-20.9a713.88,713.88,0,0,1-72.73-42.58l10.07-12.83A712.24,712.24,0,0,0,1014,420.25C1030.29,430.89,1045.1,439.31,1058.21,445.39Z"/><path class="w" d="M1056.66,523.74q24.44,5.3,44.34,3c15.38-1.76,28.64-6.91,39.68-15.43,19.94-15.4,31.34-37,33-62.6,2.37-37.31-16-81.63-56.07-135.49a648,648,0,0,0-55.41-64.73,37.92,37.92,0,0,0-16.16-9.59,38.07,38.07,0,0,1,41.28,12.58,648.06,648.06,0,0,1,47.71,70.6c33.73,58.06,46.92,104.18,40.32,141-4.52,25.2-18.3,45.41-39.86,58.45-11.93,7.22-25.7,10.83-41.17,10.83-13.33,0-27.93-2.68-43.72-8q-9.55-3.25-20-7.88A245.9,245.9,0,0,0,1056.66,523.74Z"/><path class="x" d="M803.68,433.19a18.73,18.73,0,0,0,18.72,18.73h75.25a18.74,18.74,0,0,0,18.73-18.73V305a18.73,18.73,0,0,0-18.73-18.72H822.4A18.72,18.72,0,0,0,803.68,305V433.19Z"/><path class="y" d="M931.95,558.38a7.64,7.64,0,0,1-9.68,4.82l-31-10.42a7.65,7.65,0,0,1-4.81-9.67h0a7.65,7.65,0,0,1,9.68-4.82l31,10.42a7.64,7.64,0,0,1,4.81,9.67h0Z"/><path class="y" d="M900,543.39a7.65,7.65,0,0,1-5.24,9.45l-31.45,9a7.64,7.64,0,0,1-9.45-5.24h0c-1.17-4.06-25.75-5.43-21.69-6.6l58.38-11.88a7.65,7.65,0,0,1,9.45,5.25h0Z"/><path class="y" d="M825.18,571.94l8-12.61,34.51-13.7,30.63,16.45-7.61,13L860,564.85l-4.9,18.49s22.61,6.67,9,17.3c-5.92,4.63-5.58,3.92-15.85,6.79s-56.76-15.1-56.76-15.1l31.91-7.63Z"/><path class="y" d="M921,600a7.65,7.65,0,0,1-10.77-1l-20.84-25.23a7.63,7.63,0,0,1,1-10.75h0a7.64,7.64,0,0,1,10.76,1L922,589.24A7.64,7.64,0,0,1,921,600h0Z"/><path class="y" d="M909,614a7.65,7.65,0,0,1-10.76-1l-20.84-25.22a7.66,7.66,0,0,1,1-10.76h0a7.64,7.64,0,0,1,10.76,1L910,603.2A7.65,7.65,0,0,1,909,614h0Z"/><path class="y" d="M890.13,619.7a7.65,7.65,0,0,1-10.76-1l-16.9-20.42a7.65,7.65,0,0,1,1-10.76h0a7.64,7.64,0,0,1,10.76,1l16.88,20.42a7.63,7.63,0,0,1-1,10.76h0Z"/><polygon class="y" points="855.27 550.86 888.53 577.34 882.27 589.97 846.76 571.51 855.27 550.86"/><polygon class="y" points="841.4 562.59 873.77 587.92 868.19 600.4 840.05 595.55 841.4 562.59"/><path class="z" d="M920.35,596.54a4.32,4.32,0,0,1-6.09,0l-2.91-3.22c-1.49-1.67,5.23-7.74,6.73-6.06l2.9,3.22a4.31,4.31,0,0,1-.63,6h0Z"/><path class="y" d="M929.31,556.08a4.33,4.33,0,0,1-5.26,3.06l-4.13-1.34c-2.13-.7.66-9.32,2.79-8.63l4.12,1.34a4.31,4.31,0,0,1,2.47,5.56h0Z"/><path class="z" d="M907.71,609.74a4.32,4.32,0,0,1-6.1,0l-2.91-3.22c-1.5-1.67,5.23-7.74,6.74-6.07l2.9,3.22a4.32,4.32,0,0,1-.63,6.05h0Z"/><path class="z" d="M889.37,616.71a4.32,4.32,0,0,1-6.09,0l-2.91-3.21c-1.5-1.67,5.22-7.74,6.72-6.06l2.9,3.21a4.3,4.3,0,0,1-.63,6.05h0Z"/><path class="y" d="M890.67,549.5a0.67,0.67,0,0,1-.82.47h0a0.68,0.68,0,0,1-.48-0.82l2.54-9.57a0.66,0.66,0,0,1,.82-0.48h0a0.68,0.68,0,0,1,.49.83Z"/><path class="y" d="M894.73,546.76a0.66,0.66,0,0,1-.82.47h0a0.68,0.68,0,0,1-.48-0.82l1.57-5.91a0.67,0.67,0,0,1,.82-0.49h0a0.68,0.68,0,0,1,.48.82Z"/><path class="z" d="M894.35,570.36a0.68,0.68,0,0,1-1,0h0a0.69,0.69,0,0,1,0-1l4.46-4.19a0.67,0.67,0,0,1,.94,0h0a0.67,0.67,0,0,1,0,1Z"/><path class="z" d="M880.91,582.89a0.68,0.68,0,0,1-.95,0h0a0.67,0.67,0,0,1,0-.95l4.45-4.2a0.67,0.67,0,0,1,.95,0h0a0.66,0.66,0,0,1,0,1Z"/><path class="y" d="M867.77,569.15c-3.24-14-13.19-23.63-22.23-21.55l-49.94,7.11-23.16,26,25.19,14.39,57.26-6.1C863.93,586.9,871,583.13,867.77,569.15Z"/><path class="aa" d="M705.08,455.14c2-121.62,102.27-205.24,106.54-208.74,6.09-5,17.41-10.22,30.12-10.71,12.21-.47,15.12,5.84,23.45,16a38.06,38.06,0,0,1-5.29,53.57c-0.19.16-19.42,16.25-38.92,43.28-17.74,24.61-39,63.29-39.78,107.87-0.27,16.16,11.28,40,31.69,65.47,6.54,8.15,13.17,15.47,19,21.53l-45.68,62a408.71,408.71,0,0,1-31.77-34.77C721.1,529.45,704.5,490.58,705.08,455.14Z"/><path class="ab" d="M945.69,585.5h21.93l-1.33-31.69h97.58v82.62c-4.22,7.39-14.8,7.47-27.24,7.47h-164c-14.08,0-25.05-1.66-27.65-12.77V553.81H947.54Z"/><polygon class="y" points="822.6 554.46 857.31 535.6 898.46 533.78 852.32 566.51 821.6 554.91 822.6 554.46"/><path class="aa" d="M844.39,605.9c0,16.17,12.08,18.36,28.25,18.36h164c16.17,0,29.21-.12,29.21-16.29l21.08-343.16a29.28,29.28,0,0,0-29.28-29.28H846.82a29.28,29.28,0,0,0-29.28,29.28Z"/><path class="v" d="M1009.07,235.52v2.62c0,11.89-17.15,12.53-38.31,12.53H937.7c-21.16,0-38.31-.64-38.31-12.53v-2.62h109.68Z"/><path class="aa" d="M823.79,344.73l-6.25-79.93a29.28,29.28,0,0,1,18-27,38.06,38.06,0,0,1,24.34,67.48C859.73,305.4,842.28,320,823.79,344.73Z"/><path class="y" d="M1010.08,138.35c0,6.08,13.08,13.92,19.16,13.92h0a11,11,0,0,0,11-11l3.65-26.74a15.23,15.23,0,0,0-14.67-17.07h0c-6.08,0-19.1,9.2-19.1,15.28Z"/><path class="x" d="M915.88,83.58H870.6a7.82,7.82,0,0,0-7.82,7.82V106c0,0.17,0,.34,0,0.5A22.2,22.2,0,0,0,885,128h16.51a22.2,22.2,0,0,0,22.19-21.45c0-.16,0-0.32,0-0.5V91.4A7.82,7.82,0,0,0,915.88,83.58Z"/><path class="x" d="M877.93,95.27a2.65,2.65,0,0,1-2.83,2.43H861.93a2.65,2.65,0,0,1-2.83-2.43V86a2.65,2.65,0,0,1,2.83-2.43H875.1A2.65,2.65,0,0,1,877.93,86v9.26Z"/><path class="ac" d="M877.09,90.52h32.3A5.58,5.58,0,0,1,915,96.1v8.77c0,0.13,0,.25,0,0.36a15.84,15.84,0,0,1-15.83,15.3H887.35a15.84,15.84,0,0,1-15.83-15.3c0-.11,0-0.23,0-0.36V96.1A5.58,5.58,0,0,1,877.09,90.52Z"/><path class="ad" d="M885.86,90.52l13.69,30h-8.41l-13.69-30h8.41Z"/><path class="ad" d="M887.35,120.53a15.84,15.84,0,0,1-15.83-15.3c0-.11,0-0.23,0-0.36V96.1a5.58,5.58,0,0,1,3.71-5.25l13.54,29.68h-1.42Z"/><path class="y" d="M907.66,235c0,10.1,14.57,7.29,32.53,7.29h28.07c18,0,32.53,2.81,32.53-7.29V205.85c0-10.1-14.57-18.29-32.53-18.29H940.19c-18,0-32.53,8.19-32.53,18.29V235Z"/><path class="ae" d="M940.19,187.56c-18,0-32.53,8.19-32.53,18.29V217c13.48,8.67,35,8.5,35,8.5,47.67-.5,18.12-19.68,18.12-19.68Z"/><path class="y" d="M1030.82,40.54V181.78c0,16.17-53,40.21-85.17,40.21-35.07,0-63.89-24-63.89-40.21V40.54h149.06Z"/><path class="y" d="M1030.82,40.54V181.78c0,16.17-53,40.21-85.17,40.21-35.07,0-63.89-24-63.89-40.21V40.54h149.06Z"/><path class="af" d="M895.93,127c0,3.8-4.34,12.88-9,14.38-6,1.94-5.78,0-5.78-4.89l-6.94-89.12A15.81,15.81,0,0,1,890,31.56h0c8.73,0,33.31-9.46,33.31-.73,0,0-13,8.54-20.22,31.91S895.93,127,895.93,127Z"/><path class="y" d="M899.26,141.48c0,6.08-13.08,13.92-19.16,13.92h0a11,11,0,0,1-11-11l-3.66-26.74a15.23,15.23,0,0,1,14.67-17.07h0c6.08,0,19.1,9.2,19.1,15.28Z"/><path class="af" d="M893.83,152.27s8-51.14-11.52-51.11l-0.55-45.82s58.67-37.86,103.79-24.5c0-8.73,24.58.73,33.31,0.73h0a15.81,15.81,0,0,1,15.81,15.81V170.69s0.51,12.24-15.49,16.87c0,0-41.34,20.93-100.92,4.78,0,0-25.61-11.23-25-25.65Z"/><path class="ag" d="M866.88,2.86c11.46-.61,1.1,11.92,38.58,11.92,10.9,0,27.95-4.88,45.06-9.53,57.17-15.56,71.55,7.87,73.82,14.38a32.87,32.87,0,0,1,1.94,11.71c-0.2,5.29-.5,20.39-13.38,27.77-13.46,7.71-23.4-7.35-55.6-1.69-23,4-44.73,7.41-63.33,3.19C860.37,53,855.42,3.47,866.88,2.86Z"/><path class="g" d="M891,476.56c0-1.36,0-2.72.08-4.07V466.7h0.33a121,121,0,0,1,241.1,0h0.4V583.3a21,21,0,0,1-21,21H912a21,21,0,0,1-21-21V480.64C891,479.28,891,477.93,891,476.56Z"/><rect class="ah" x="940.08" y="477.36" width="149.7" height="83.91" rx="16.98" ry="16.98"/><rect class="ai" x="991.43" y="552.39" width="47" height="84.32"/><rect class="aj" x="886.21" y="259.88" width="150" height="96.34" rx="12" ry="12"/><rect class="ak" x="883.21" y="255.88" width="150" height="96.34" rx="12" ry="12"/><path class="al" d="M984.07,298.13L938.74,272a8.06,8.06,0,0,0-4-1.17c-3.65,0-6.21,2.91-6.21,7.09v52.34c0,4.17,2.56,7.08,6.21,7.08a8.05,8.05,0,0,0,4-1.17L984.07,310A6.46,6.46,0,0,0,984.07,298.13Z"/></svg>